{
	"asset":{
		"generator":"Khronos glTF Blender I/O v5.0.21",
		"version":"2.0"
	},
	"scene":0,
	"scenes":[
		{
			"name":"Scene",
			"nodes":[
				0
			]
		}
	],
	"nodes":[
		{
			"mesh":0,
			"name":"final_d",
			"rotation":[
				0.7071068286895752,
				0,
				0,
				0.7071068286895752
			]
		}
	],
	"materials":[
		{
			"doubleSided":true,
			"name":"Bottle_"
		},
		{
			"doubleSided":true,
			"name":"Label_",
			"pbrMetallicRoughness":{
				"baseColorTexture":{
					"index":0,
					"texCoord":1
				},
				"metallicFactor":0,
				"roughnessFactor":0.5
			}
		}
	],
	"meshes":[
		{
			"name":"final_d",
			"primitives":[
				{
					"attributes":{
						"POSITION":0,
						"NORMAL":1,
						"TEXCOORD_0":2,
						"TEXCOORD_1":3
					},
					"indices":4,
					"material":0
				},
				{
					"attributes":{
						"POSITION":5,
						"NORMAL":6,
						"TEXCOORD_0":7,
						"TEXCOORD_1":8
					},
					"indices":9,
					"material":1
				}
			]
		}
	],
	"textures":[
		{
			"sampler":0,
			"source":0
		}
	],
	"images":[
		{
			"mimeType":"image/png",
			"name":"brewy",
			"uri":"brewy.png"
		}
	],
	"accessors":[
		{
			"bufferView":0,
			"componentType":5126,
			"count":19467,
			"max":[
				63.149234771728516,
				-3.562406063079834,
				-3.0269899368286133
			],
			"min":[
				3.0754001140594482,
				-172.12945556640625,
				-63.0780143737793
			],
			"type":"VEC3"
		},
		{
			"bufferView":1,
			"componentType":5126,
			"count":19467,
			"type":"VEC3"
		},
		{
			"bufferView":2,
			"componentType":5126,
			"count":19467,
			"type":"VEC2"
		},
		{
			"bufferView":3,
			"componentType":5126,
			"count":19467,
			"type":"VEC2"
		},
		{
			"bufferView":4,
			"componentType":5123,
			"count":83106,
			"type":"SCALAR"
		},
		{
			"bufferView":5,
			"componentType":5126,
			"count":82,
			"max":[
				62.56231689453125,
				-32.629451751708984,
				-3.625319004058838
			],
			"min":[
				3.662317991256714,
				-105.02945709228516,
				-62.52531814575195
			],
			"type":"VEC3"
		},
		{
			"bufferView":6,
			"componentType":5126,
			"count":82,
			"type":"VEC3"
		},
		{
			"bufferView":7,
			"componentType":5126,
			"count":82,
			"type":"VEC2"
		},
		{
			"bufferView":8,
			"componentType":5126,
			"count":82,
			"type":"VEC2"
		},
		{
			"bufferView":9,
			"componentType":5123,
			"count":240,
			"type":"SCALAR"
		}
	],
	"bufferViews":[
		{
			"buffer":0,
			"byteLength":233604,
			"byteOffset":0,
			"target":34962
		},
		{
			"buffer":0,
			"byteLength":233604,
			"byteOffset":233604,
			"target":34962
		},
		{
			"buffer":0,
			"byteLength":155736,
			"byteOffset":467208,
			"target":34962
		},
		{
			"buffer":0,
			"byteLength":155736,
			"byteOffset":622944,
			"target":34962
		},
		{
			"buffer":0,
			"byteLength":166212,
			"byteOffset":778680,
			"target":34963
		},
		{
			"buffer":0,
			"byteLength":984,
			"byteOffset":944892,
			"target":34962
		},
		{
			"buffer":0,
			"byteLength":984,
			"byteOffset":945876,
			"target":34962
		},
		{
			"buffer":0,
			"byteLength":656,
			"byteOffset":946860,
			"target":34962
		},
		{
			"buffer":0,
			"byteLength":656,
			"byteOffset":947516,
			"target":34962
		},
		{
			"buffer":0,
			"byteLength":480,
			"byteOffset":948172,
			"target":34963
		}
	],
	"samplers":[
		{
			"magFilter":9729,
			"minFilter":9987
		}
	],
	"buffers":[
		{
			"byteLength":948652,
			"uri":"Bottle_.bin"
		}
	]
}
