{
    "asset": {
        "version": "2.0",
        "generator": "Open Asset Import Library (assimp v5.2.cf7d3637)"
    },
    "extensionsUsed": [
        "KHR_materials_volume",
        "FB_ngon_encoding"
    ],
    "accessors": [
        {
            "bufferView": 0,
            "byteOffset": 0,
            "componentType": 5126,
            "count": 83346,
            "type": "VEC3",
            "max": [
                63.149234771728519,
                172.12945556640626,
                63.0780143737793
            ],
            "min": [
                3.0754003524780275,
                3.562405824661255,
                3.0269901752471926
            ]
        },
        {
            "bufferView": 1,
            "byteOffset": 0,
            "componentType": 5126,
            "count": 83346,
            "type": "VEC3",
            "max": [
                0.9999929666519165,
                1.0,
                1.0
            ],
            "min": [
                -0.9999867677688599,
                -1.0,
                -1.0
            ]
        },
        {
            "bufferView": 2,
            "byteOffset": 0,
            "componentType": 5125,
            "count": 83346,
            "type": "SCALAR",
            "max": [
                83345
            ],
            "min": [
                0
            ]
        }
    ],
    "buffers": [
        {
            "byteLength": 2333688,
            "uri": "result.bin"
        }
    ],
    "bufferViews": [
        {
            "buffer": 0,
            "byteOffset": 0,
            "byteLength": 1000152,
            "target": 34962
        },
        {
            "buffer": 0,
            "byteOffset": 1000152,
            "byteLength": 1000152,
            "target": 34962
        },
        {
            "buffer": 0,
            "byteOffset": 2000304,
            "byteLength": 333384,
            "target": 34963
        }
    ],
    "materials": [
        {
            "name": "DefaultMaterial",
            "pbrMetallicRoughness": {
                "metallicFactor": 0.0
            }
        }
    ],
    "meshes": [
        {
            "primitives": [
                {
                    "mode": 4,
                    "material": 0,
                    "indices": 2,
                    "attributes": {
                        "POSITION": 0,
                        "NORMAL": 1
                    }
                }
            ]
        }
    ],
    "nodes": [
        {
            "name": "<STL_BINARY>",
            "children": [
                1
            ]
        },
        {
            "name": "node",
            "mesh": 0
        }
    ],
    "scenes": [
        {
            "nodes": [
                0
            ]
        }
    ],
    "scene": 0
}